<svg xmlns="http://www.w3.org/2000/svg" version="1.1" xmlns:xlink="http://www.w3.org/1999/xlink" xmlns:svgjs="http://svgjs.dev/svgjs" width="1000" height="623" viewBox="0 0 1000 623"><g transform="matrix(1,0,0,1,-0.6060428853463122,0.2522267206477409)"><svg viewBox="0 0 396 247" data-background-color="#ffffff" preserveAspectRatio="xMidYMid meet" height="623" width="1000" xmlns="http://www.w3.org/2000/svg" xmlns:xlink="http://www.w3.org/1999/xlink"><g id="tight-bounds" transform="matrix(1,0,0,1,0.23999301749114466,-0.09999999999999432)"><svg viewBox="0 0 395.52 247.2" height="247.2" width="395.52"><g><svg></svg></g><g><svg viewBox="0 0 395.52 247.2" height="247.2" width="395.52"><g><g><path xmlns="http://www.w3.org/2000/svg" d="M1 233.773v-48.83l21.724 0v29.589h53.07c18.207 0 33.517-4.035 45.931-12.104 7.404-4.813 13.741-10.641 19.011-17.485l25.931 0c-8.479 14.962-20.087 26.687-34.825 35.175-15.848 9.104-34.531 13.655-56.048 13.655zM1 13.427h74.794c23.379 0 42.89 4.903 58.531 14.71 13.806 8.716 24.582 20.089 32.327 34.12l-25.44 0c-5.456-7.137-12.055-13.13-19.797-17.982-12.414-7.738-27.621-11.607-45.621-11.607h-53.07l0 29.589-21.724 0zM244.622 233.773h-21.724l0-48.83h21.724zM222.898 13.737h21.724v48.52l-21.724 0zM365.968 13.427h23.897l-45.387 48.83-24.739 0zM394.52 233.773h-24.517l-37.172-48.83 24.269 0z" fill="#ea3c12" fill-rule="nonzero" stroke="none" stroke-width="1" stroke-linecap="butt" stroke-linejoin="miter" stroke-miterlimit="10" stroke-dasharray="" stroke-dashoffset="0" font-family="none" font-weight="none" font-size="none" text-anchor="none" style="mix-blend-mode: normal" data-fill-palette-color="tertiary"></path></g></g><g transform="matrix(1,0,0,1,0,70.9656696392147)"><svg viewBox="0 0 395.52 105.26866072157061" height="105.26866072157061" width="395.52"><g><svg viewBox="0 0 395.52 105.26866072157061" height="105.26866072157061" width="395.52"><g><svg viewBox="0 0 395.52 105.26866072157061" height="105.26866072157061" width="395.52"><g><svg viewBox="0 0 395.52 105.26866072157061" height="105.26866072157061" width="395.52"><g id="textblocktransform"><svg viewBox="0 0 395.52 105.26866072157061" height="105.26866072157061" width="395.52" id="textblock"><g><svg viewBox="0 0 395.52 59.67868271057631" height="59.67868271057631" width="395.52"><g transform="matrix(1,0,0,1,0,0)"><svg width="395.52" viewBox="4.449999809265137 -36.5 315.7699890136719 47.650001525878906" height="59.67868271057631" data-palette-color="#ea3c12"><path d="M16.5 0L4.45 0 4.45-35.5 16.5-35.5Q22.15-35.5 25.93-33.13 29.7-30.75 31.6-26.73 33.5-22.7 33.5-17.8L33.5-17.8Q33.5-12.4 31.43-8.4 29.35-4.4 25.53-2.2 21.7 0 16.5 0L16.5 0ZM30-17.8L30-17.8Q30-22.05 28.43-25.35 26.85-28.65 23.85-30.53 20.85-32.4 16.5-32.4L16.5-32.4 7.95-32.4 7.95-3.1 16.5-3.1Q20.9-3.1 23.9-5.05 26.9-7 28.45-10.33 30-13.65 30-17.8ZM42.9 0L39.5 0 39.5-26.05 42.9-26.05 42.9 0ZM42.9-31.5L39.5-31.5 39.5-36.5 42.9-36.5 42.9-31.5ZM60.85 0.35L60.85 0.35Q58.2 0.35 55.95-0.75 53.7-1.85 52.07-3.73 50.45-5.6 49.55-8 48.65-10.4 48.65-12.95L48.65-12.95Q48.65-15.7 49.52-18.13 50.4-20.55 52.02-22.45 53.65-24.35 55.85-25.43 58.05-26.5 60.75-26.5L60.75-26.5Q64.09-26.5 66.57-24.8 69.05-23.1 70.75-20.6L70.75-20.6 70.75-26.05 73.8-26.05 73.8 0.1Q73.8 3.7 72.07 6.18 70.34 8.65 67.42 9.9 64.5 11.15 61.05 11.15L61.05 11.15Q56.6 11.15 53.85 9.55 51.1 7.95 49.35 5.25L49.35 5.25 51.45 3.6Q53 6.05 55.57 7.25 58.15 8.45 61.05 8.45L61.05 8.45Q63.59 8.45 65.72 7.53 67.84 6.6 69.12 4.75 70.4 2.9 70.4 0.1L70.4 0.1 70.4-5.05Q68.9-2.6 66.3-1.13 63.7 0.35 60.85 0.35ZM61.8-2.5L61.8-2.5Q63.34-2.5 64.77-3.05 66.2-3.6 67.4-4.53 68.59-5.45 69.4-6.6 70.2-7.75 70.4-8.95L70.4-8.95 70.4-17Q69.65-18.9 68.25-20.38 66.84-21.85 65.07-22.68 63.3-23.5 61.4-23.5L61.4-23.5Q59.2-23.5 57.47-22.58 55.75-21.65 54.57-20.13 53.4-18.6 52.75-16.7 52.1-14.8 52.1-12.9L52.1-12.9Q52.1-10.8 52.85-8.93 53.6-7.05 54.92-5.58 56.25-4.1 58.02-3.3 59.8-2.5 61.8-2.5ZM84.69 0L81.29 0 81.29-26.05 84.69-26.05 84.69 0ZM84.69-31.5L81.29-31.5 81.29-36.5 84.69-36.5 84.69-31.5ZM103.79-4L104.69-1.25Q104.29-1.1 103.44-0.7 102.59-0.3 101.39 0 100.19 0.3 98.79 0.3L98.79 0.3Q97.34 0.3 96.07-0.25 94.79-0.8 94.04-1.93 93.29-3.05 93.29-4.7L93.29-4.7 93.29-23.35 89.69-23.35 89.69-26.05 93.29-26.05 93.29-34.85 96.69-34.85 96.69-26.05 102.69-26.05 102.69-23.35 96.69-23.35 96.69-5.65Q96.79-4.25 97.72-3.55 98.64-2.85 99.84-2.85L99.84-2.85Q101.24-2.85 102.39-3.33 103.54-3.8 103.79-4L103.79-4ZM106.84-7.5L106.84-7.5Q106.84-9.95 108.24-11.73 109.64-13.5 112.11-14.48 114.59-15.45 117.84-15.45L117.84-15.45Q119.74-15.45 121.79-15.15 123.84-14.85 125.44-14.25L125.44-14.25 125.44-16.45Q125.44-19.75 123.49-21.7 121.54-23.65 118.09-23.65L118.09-23.65Q115.99-23.65 113.96-22.88 111.94-22.1 109.74-20.6L109.74-20.6 108.44-23Q110.99-24.75 113.44-25.63 115.89-26.5 118.44-26.5L118.44-26.5Q123.24-26.5 126.04-23.75 128.84-21 128.84-16.15L128.84-16.15 128.84-4.1Q128.84-3.4 129.14-3.08 129.44-2.75 130.09-2.7L130.09-2.7 130.09 0Q129.54 0.05 129.14 0.1 128.74 0.15 128.54 0.1L128.54 0.1Q127.29 0.05 126.64-0.7 125.99-1.45 125.94-2.3L125.94-2.3 125.89-4.2Q124.14-1.95 121.34-0.73 118.54 0.5 115.64 0.5L115.64 0.5Q113.14 0.5 111.11-0.58 109.09-1.65 107.96-3.48 106.84-5.3 106.84-7.5ZM124.29-5.5L124.29-5.5Q124.84-6.2 125.14-6.85 125.44-7.5 125.44-8L125.44-8 125.44-11.8Q123.74-12.45 121.91-12.8 120.09-13.15 118.24-13.15L118.24-13.15Q114.59-13.15 112.34-11.7 110.09-10.25 110.09-7.75L110.09-7.75Q110.09-6.3 110.84-5.03 111.59-3.75 113.04-2.93 114.49-2.1 116.44-2.1L116.44-2.1Q118.89-2.1 121.01-3.05 123.14-4 124.29-5.5ZM136.34-4.75L136.34-36.5 139.74-36.5 139.74-5.9Q139.74-3.95 140.44-3.35 141.13-2.75 142.13-2.75L142.13-2.75Q143.03-2.75 143.94-2.95 144.84-3.15 145.49-3.35L145.49-3.35 146.09-0.6Q145.13-0.2 143.76 0.05 142.38 0.3 141.38 0.3L141.38 0.3Q139.09 0.3 137.71-1.05 136.34-2.4 136.34-4.75L136.34-4.75ZM165.23 0L161.73 0 161.73-35.45 165.23-35.45 165.23-14.85 184.78-35.5 188.63-35.5 174.13-19.9 189.38 0 185.43 0 171.88-17.8 165.23-10.9 165.23 0ZM192.03-10.75L192.03-10.75 192.03-26.05 195.43-26.05 195.43-11.35Q195.43-6.9 196.95-4.7 198.48-2.5 201.48-2.5L201.48-2.5Q203.48-2.5 205.35-3.38 207.23-4.25 208.68-5.88 210.13-7.5 210.88-9.65L210.88-9.65 210.88-26.05 214.28-26.05 214.28-4.1Q214.28-3.4 214.58-3.08 214.88-2.75 215.48-2.7L215.48-2.7 215.48 0Q214.88 0.05 214.53 0.08 214.18 0.1 213.88 0.1L213.88 0.1Q212.88 0 212.15-0.7 211.43-1.4 211.38-2.4L211.38-2.4 211.28-5.9Q209.58-2.9 206.65-1.2 203.73 0.5 200.33 0.5L200.33 0.5Q196.23 0.5 194.13-2.35 192.03-5.2 192.03-10.75ZM257.63 0L254.13 0 254.13-28.9 241.28-6.45 239.08-6.45 226.18-28.9 226.18 0 222.68 0 222.68-35.5 226.28-35.5 240.13-11.2 254.08-35.5 257.63-35.5 257.63 0ZM265.57-10.75L265.57-10.75 265.57-26.05 268.97-26.05 268.97-11.35Q268.97-6.9 270.5-4.7 272.02-2.5 275.02-2.5L275.02-2.5Q277.02-2.5 278.9-3.38 280.77-4.25 282.22-5.88 283.67-7.5 284.42-9.65L284.42-9.65 284.42-26.05 287.82-26.05 287.82-4.1Q287.82-3.4 288.12-3.08 288.42-2.75 289.02-2.7L289.02-2.7 289.02 0Q288.42 0.05 288.07 0.08 287.72 0.1 287.42 0.1L287.42 0.1Q286.42 0 285.7-0.7 284.97-1.4 284.92-2.4L284.92-2.4 284.82-5.9Q283.12-2.9 280.2-1.2 277.27 0.5 273.87 0.5L273.87 0.5Q269.77 0.5 267.67-2.35 265.57-5.2 265.57-10.75ZM320.22 0L296.22 0 296.22-35.5 299.72-35.5 299.72-3.1 320.22-3.1 320.22 0Z" opacity="1" transform="matrix(1,0,0,1,0,0)" fill="#ea3c12" class="undefined-text-0" data-fill-palette-color="primary" id="text-0"></path></svg></g></svg></g><g transform="matrix(1,0,0,1,0,68.38723480643445)"><svg viewBox="0 0 395.52 36.88142591513616" height="36.88142591513616" width="395.52"><g transform="matrix(1,0,0,1,0,0)"><svg width="395.52" viewBox="1.9500000476837158 -37.20000076293945 540.489990234375 50.400001525878906" height="36.88142591513616" data-palette-color="#ea9937"><path d="M13.85 0.8Q9.65 0.8 6.38-1.48 3.1-3.75 1.95-7.45L1.95-7.45 3.85-8.2Q4.8-5.05 7.58-3.13 10.35-1.2 13.9-1.2L13.9-1.2Q16.55-1.2 18.7-2.33 20.85-3.45 22.08-5.43 23.3-7.4 23.3-9.85L23.3-9.85Q23.3-11.75 22.43-13.18 21.55-14.6 19.5-15.9 17.45-17.2 13.75-18.75L13.75-18.75Q10.5-20.1 8.72-21.3 6.95-22.5 6.18-23.85 5.4-25.2 5.4-27.05L5.4-27.05Q5.4-29.3 6.6-31.13 7.8-32.95 9.93-34 12.05-35.05 14.65-35.05L14.65-35.05Q18.05-35.05 20.2-33.45 22.35-31.85 22.35-29.25L22.35-29.25Q22.35-27.3 21.05-26.08 19.75-24.85 18.05-25.05L18.05-25.05 18.2-26.95Q19.1-26.85 19.68-27.48 20.25-28.1 20.25-29.15L20.25-29.15Q20.25-30.85 18.68-31.95 17.1-33.05 14.75-33.05L14.75-33.05Q12.85-33.05 11.18-32.23 9.5-31.4 8.5-30.05 7.5-28.7 7.5-27.15L7.5-27.15Q7.5-25.7 8.1-24.73 8.7-23.75 10.25-22.8 11.8-21.85 14.85-20.55L14.85-20.55Q18.9-18.85 21.18-17.3 23.45-15.75 24.45-14 25.45-12.25 25.45-9.9L25.45-9.9Q25.45-6.8 23.95-4.38 22.45-1.95 19.83-0.58 17.2 0.8 13.85 0.8L13.85 0.8ZM49.75 0.45Q46.2 0.45 43.47-1.15 40.75-2.75 39.22-5.65 37.7-8.55 37.7-12.3L37.7-12.3Q37.7-16.1 39.22-19.03 40.75-21.95 43.5-23.6 46.25-25.25 49.8-25.25L49.8-25.25Q53.35-25.25 56.1-23.63 58.85-22 60.37-19.07 61.9-16.15 61.9-12.35L61.9-12.35Q61.9-8.6 60.37-5.68 58.85-2.75 56.1-1.15 53.35 0.45 49.75 0.45L49.75 0.45ZM49.8-1.45Q52.75-1.45 55.02-2.85 57.3-4.25 58.55-6.78 59.8-9.3 59.8-12.55L59.8-12.55Q59.8-15.75 58.55-18.2 57.3-20.65 55.02-22 52.75-23.35 49.8-23.35L49.8-23.35Q46.85-23.35 44.57-21.98 42.3-20.6 41.05-18.1 39.8-15.6 39.8-12.35L39.8-12.35Q39.8-9.15 41.05-6.68 42.3-4.2 44.57-2.83 46.85-1.45 49.8-1.45L49.8-1.45ZM75.74-25.3Q75.74-31.55 77.59-34.38 79.44-37.2 83.54-37.2L83.54-37.2Q86.89-37.2 88.69-35.3 90.49-33.4 90.49-29.9L90.49-29.9Q90.49-25.65 87.87-23.35 85.24-21.05 80.64-21.2L80.64-21.2 77.84-21.3 77.84-12.2 85.39-12.2 85.39-10.3 77.84-10.3 77.84 13.2 75.74 13.2 75.74-25.3ZM80.64-23.1Q84.19-23.1 86.29-24.95 88.39-26.8 88.39-29.95L88.39-29.95Q88.39-32.4 87.04-33.85 85.69-35.3 83.44-35.3L83.44-35.3Q77.84-35.3 77.84-25.45L77.84-25.45 77.84-23.1 80.64-23.1ZM107.79 0.45Q101.49 0.45 101.49-7L101.49-7 101.49-31.15 103.59-31.15 103.59-25 111.64-25 111.64-23 103.59-23 103.59-7Q103.59-4.35 104.57-2.9 105.54-1.45 107.79-1.45L107.79-1.45Q110.74-1.45 112.49-4.3L112.49-4.3 113.99-3.2Q112.84-1.35 111.39-0.45 109.94 0.45 107.79 0.45L107.79 0.45ZM125.69-21.05Q125.49-21.8 124.84-22.58 124.19-23.35 123.39-23.9L123.39-23.9 124.44-25.55Q125.69-24.8 126.44-23.78 127.19-22.75 127.64-21.35L127.64-21.35 133.74-3 140.89-24.85 143.24-24.85 150.34-3 157.49-24.85 159.59-24.85 151.54-0.1 149.19-0.1 142.04-21.95 134.89-0.1 132.49-0.1 125.69-21.05ZM194.88-2.4L196.48-1.4Q195.98-0.55 195.11-0.1 194.23 0.35 193.28 0.35L193.28 0.35Q191.48 0.35 190.43-0.68 189.38-1.7 189.23-3.7L189.23-3.7Q188.18-1.8 186.03-0.68 183.88 0.45 181.18 0.45L181.18 0.45Q177.73 0.45 175.36-1.28 172.98-3 171.81-5.88 170.63-8.75 170.63-12.25L170.63-12.25Q170.63-16.15 172.08-19.07 173.53-22 176.26-23.63 178.98-25.25 182.73-25.25L182.73-25.25Q183.88-25.25 185.66-25.13 187.43-25 188.78-24.8L188.78-24.8 191.28-24.8 191.28-3.9Q191.28-2.7 191.83-2.13 192.38-1.55 193.28-1.55L193.28-1.55Q193.73-1.55 194.21-1.8 194.68-2.05 194.88-2.4L194.88-2.4ZM189.18-9.3L189.18-23Q188.38-22.95 185.58-23.15L185.58-23.15 182.53-23.25Q177.78-23.25 175.26-20.15 172.73-17.05 172.73-12.35L172.73-12.35Q172.73-9.55 173.71-7.08 174.68-4.6 176.61-3.08 178.53-1.55 181.23-1.55L181.23-1.55Q183.68-1.55 185.58-2.75 187.48-3.95 188.43-5.85L188.43-5.85Q189.18-7.35 189.18-9.3L189.18-9.3ZM218.13-25.25Q218.83-25.25 220.73-24.9L220.73-24.9 220.73-23Q219.28-23.25 218.23-23.25L218.23-23.25Q215.38-23.25 213.63-21.85L213.63-21.85Q212.88-21.2 212.03-20.18 211.18-19.15 210.58-18L210.58-18 210.58-0.05 208.48-0.05 208.48-18.1Q208.48-20.3 208.03-21.58 207.58-22.85 206.63-24.05L206.63-24.05 208.03-25.4Q209.13-24.35 209.81-23.03 210.48-21.7 210.58-20.25L210.58-20.25Q211.23-21.55 212.13-22.6 213.03-23.65 213.93-24.2L213.93-24.2Q215.63-25.25 218.13-25.25L218.13-25.25ZM241.63 0.45Q236.08 0.45 233.23-2.83 230.38-6.1 230.38-11.45L230.38-11.45Q230.38-14.9 231.58-18.05 232.78-21.2 235.28-23.23 237.78-25.25 241.43-25.25L241.43-25.25Q245.23-25.25 247.78-23.2 250.33-21.15 250.33-17.75L250.33-17.75Q250.33-14.15 247.35-12.2 244.38-10.25 239.28-10.25L239.28-10.25 232.63-10.25Q233.03-6.05 235.33-3.75 237.63-1.45 241.63-1.45L241.63-1.45Q243.88-1.45 245.75-2.1 247.63-2.75 249.63-4L249.63-4 250.68-2.55Q246.43 0.45 241.63 0.45L241.63 0.45ZM239.28-12.15Q243.28-12.15 245.75-13.5 248.23-14.85 248.23-17.8L248.23-17.8Q248.23-20.5 246.23-21.93 244.23-23.35 241.58-23.35L241.58-23.35Q238.53-23.35 236.45-21.53 234.38-19.7 233.4-17.07 232.43-14.45 232.53-12.15L232.53-12.15 239.28-12.15ZM295.27 0.8Q291.07 0.8 287.8-1.48 284.52-3.75 283.37-7.45L283.37-7.45 285.27-8.2Q286.22-5.05 289-3.13 291.77-1.2 295.32-1.2L295.32-1.2Q297.97-1.2 300.12-2.33 302.27-3.45 303.5-5.43 304.72-7.4 304.72-9.85L304.72-9.85Q304.72-11.75 303.85-13.18 302.97-14.6 300.92-15.9 298.87-17.2 295.17-18.75L295.17-18.75Q291.92-20.1 290.15-21.3 288.37-22.5 287.6-23.85 286.82-25.2 286.82-27.05L286.82-27.05Q286.82-29.3 288.02-31.13 289.22-32.95 291.35-34 293.47-35.05 296.07-35.05L296.07-35.05Q299.47-35.05 301.62-33.45 303.77-31.85 303.77-29.25L303.77-29.25Q303.77-27.3 302.47-26.08 301.17-24.85 299.47-25.05L299.47-25.05 299.62-26.95Q300.52-26.85 301.1-27.48 301.67-28.1 301.67-29.15L301.67-29.15Q301.67-30.85 300.1-31.95 298.52-33.05 296.17-33.05L296.17-33.05Q294.27-33.05 292.6-32.23 290.92-31.4 289.92-30.05 288.92-28.7 288.92-27.15L288.92-27.15Q288.92-25.7 289.52-24.73 290.12-23.75 291.67-22.8 293.22-21.85 296.27-20.55L296.27-20.55Q300.32-18.85 302.6-17.3 304.87-15.75 305.87-14 306.87-12.25 306.87-9.9L306.87-9.9Q306.87-6.8 305.37-4.38 303.87-1.95 301.25-0.58 298.62 0.8 295.27 0.8L295.27 0.8ZM331.17 0.45Q327.62 0.45 324.89-1.15 322.17-2.75 320.64-5.65 319.12-8.55 319.12-12.3L319.12-12.3Q319.12-16.1 320.64-19.03 322.17-21.95 324.92-23.6 327.67-25.25 331.22-25.25L331.22-25.25Q334.77-25.25 337.52-23.63 340.27-22 341.79-19.07 343.32-16.15 343.32-12.35L343.32-12.35Q343.32-8.6 341.79-5.68 340.27-2.75 337.52-1.15 334.77 0.45 331.17 0.45L331.17 0.45ZM331.22-1.45Q334.17-1.45 336.44-2.85 338.72-4.25 339.97-6.78 341.22-9.3 341.22-12.55L341.22-12.55Q341.22-15.75 339.97-18.2 338.72-20.65 336.44-22 334.17-23.35 331.22-23.35L331.22-23.35Q328.27-23.35 325.99-21.98 323.72-20.6 322.47-18.1 321.22-15.6 321.22-12.35L321.22-12.35Q321.22-9.15 322.47-6.68 323.72-4.2 325.99-2.83 328.27-1.45 331.22-1.45L331.22-1.45ZM359.11-3.8Q359.11-2.6 359.66-2 360.21-1.4 361.11-1.4L361.11-1.4Q361.96-1.4 362.61-2.2L362.61-2.2 364.16-1.1Q363.01 0.5 361.06 0.5L361.06 0.5Q359.26 0.5 358.14-0.68 357.01-1.85 357.01-3.85L357.01-3.85 357.01-36.35 359.11-36.35 359.11-3.8ZM392.71-3.8Q389.41 0.35 383.71 0.35L383.71 0.35Q379.96 0.35 378.01-1.38 376.06-3.1 375.86-6.75L375.86-6.75 375.86-18.2Q375.86-20.4 375.41-21.68 374.96-22.95 374.01-24.15L374.01-24.15 375.41-25.5Q376.56-24.35 377.26-22.88 377.96-21.4 377.96-19.85L377.96-19.85 377.96-8.05Q377.96-1.55 384.01-1.55L384.01-1.55Q386.76-1.55 388.71-2.83 390.66-4.1 392.66-6.75L392.66-6.75 392.71-25 394.81-25 394.76-3.9Q394.76-2.7 395.31-2.13 395.86-1.55 396.76-1.55L396.76-1.55Q397.21-1.55 397.69-1.8 398.16-2.05 398.36-2.4L398.36-2.4 399.96-1.4Q399.46-0.55 398.59-0.1 397.71 0.35 396.76 0.35L396.76 0.35Q394.91 0.35 393.86-0.73 392.81-1.8 392.71-3.8L392.71-3.8ZM417.76 0.45Q411.46 0.45 411.46-7L411.46-7 411.46-31.15 413.56-31.15 413.56-25 421.61-25 421.61-23 413.56-23 413.56-7Q413.56-4.35 414.53-2.9 415.51-1.45 417.76-1.45L417.76-1.45Q420.71-1.45 422.46-4.3L422.46-4.3 423.96-3.2Q422.81-1.35 421.36-0.45 419.91 0.45 417.76 0.45L417.76 0.45ZM438.5-3.8Q438.5-2.6 439.05-2 439.6-1.4 440.5-1.4L440.5-1.4Q441.35-1.4 442-2.2L442-2.2 443.55-1.1Q442.4 0.5 440.45 0.5L440.45 0.5Q438.65 0.5 437.53-0.68 436.4-1.85 436.4-3.85L436.4-3.85 436.4-25 438.5-25 438.5-3.8ZM437.45-28.75Q436.65-28.75 436.15-29.25 435.65-29.75 435.65-30.55L435.65-30.55Q435.65-31.35 436.15-31.85 436.65-32.35 437.45-32.35L437.45-32.35Q438.25-32.35 438.78-31.85 439.3-31.35 439.3-30.55L439.3-30.55Q439.3-29.75 438.78-29.25 438.25-28.75 437.45-28.75L437.45-28.75ZM465.05 0.45Q461.5 0.45 458.78-1.15 456.05-2.75 454.53-5.65 453-8.55 453-12.3L453-12.3Q453-16.1 454.53-19.03 456.05-21.95 458.8-23.6 461.55-25.25 465.1-25.25L465.1-25.25Q468.65-25.25 471.4-23.63 474.15-22 475.68-19.07 477.2-16.15 477.2-12.35L477.2-12.35Q477.2-8.6 475.68-5.68 474.15-2.75 471.4-1.15 468.65 0.45 465.05 0.45L465.05 0.45ZM465.1-1.45Q468.05-1.45 470.33-2.85 472.6-4.25 473.85-6.78 475.1-9.3 475.1-12.55L475.1-12.55Q475.1-15.75 473.85-18.2 472.6-20.65 470.33-22 468.05-23.35 465.1-23.35L465.1-23.35Q462.15-23.35 459.88-21.98 457.6-20.6 456.35-18.1 455.1-15.6 455.1-12.35L455.1-12.35Q455.1-9.15 456.35-6.68 457.6-4.2 459.88-2.83 462.15-1.45 465.1-1.45L465.1-1.45ZM513.3-2.2L514.85-1.1Q513.7 0.5 511.75 0.5L511.75 0.5Q509.95 0.5 508.82-0.68 507.7-1.85 507.7-3.85L507.7-3.85 507.7-16.85Q507.7-23.35 501.7-23.35L501.7-23.35Q499.2-23.35 497.12-22.08 495.05-20.8 492.9-17.9L492.9-17.9 492.9 0 490.8 0 490.8-18Q490.8-20.2 490.35-21.48 489.9-22.75 488.95-23.95L488.95-23.95 490.35-25.3Q491.45-24.25 492.12-22.88 492.8-21.5 492.9-20.05L492.9-20.05Q494.6-22.8 496.77-24.03 498.95-25.25 501.95-25.25L501.95-25.25Q505.7-25.25 507.75-23.35 509.8-21.45 509.8-17.9L509.8-17.9 509.8-3.8Q509.8-2.6 510.35-2 510.9-1.4 511.8-1.4L511.8-1.4Q512.65-1.4 513.3-2.2L513.3-2.2ZM533.69 0.55Q531.14 0.55 528.94-0.35 526.74-1.25 524.69-3.15L524.69-3.15 525.89-4.6Q529.54-1.35 533.74-1.35L533.74-1.35Q536.59-1.35 538.44-2.8 540.29-4.25 540.29-6.7L540.29-6.7Q540.29-8.25 539.49-9.25 538.69-10.25 537.32-10.95 535.94-11.65 533.14-12.8L533.14-12.8Q530.54-13.85 529.14-14.6 527.74-15.35 526.87-16.53 525.99-17.7 525.99-19.45L525.99-19.45Q525.99-22.25 528.07-23.95 530.14-25.65 533.59-25.65L533.59-25.65Q536.79-25.65 539.54-23.9L539.54-23.9 538.54-22.3Q536.09-23.75 533.64-23.75L533.64-23.75Q531.19-23.75 529.67-22.55 528.14-21.35 528.14-19.45L528.14-19.45Q528.14-18.4 528.72-17.68 529.29-16.95 530.64-16.23 531.99-15.5 534.89-14.25L534.89-14.25Q537.89-12.95 539.34-12.1 540.79-11.25 541.62-10.05 542.44-8.85 542.44-6.95L542.44-6.95Q542.44-3.5 540.04-1.48 537.64 0.55 533.69 0.55L533.69 0.55Z" opacity="1" transform="matrix(1,0,0,1,0,0)" fill="#ea9937" class="undefined-text-1" data-fill-palette-color="secondary" id="text-1"></path></svg></g></svg></g></svg></g></svg></g></svg></g></svg></g></svg></g></svg></g><defs></defs></svg><rect width="395.52" height="247.2" fill="none" stroke="none" visibility="hidden"></rect></g></svg></g></svg>